<mxfile host="Electron" modified="2023-08-24T03:13:29.822Z" agent="Mozilla/5.0 (Windows NT 10.0; Win64; x64) AppleWebKit/537.36 (KHTML, like Gecko) draw.io/21.6.8 Chrome/114.0.5735.289 Electron/25.5.0 Safari/537.36" etag="Jzq1KCMjVOqqQ7Pza0fS" version="21.6.8" type="device">
  <diagram id="C5RBs43oDa-KdzZeNtuy" name="Page-1">
    <mxGraphModel dx="1418" dy="828" grid="1" gridSize="10" guides="1" tooltips="1" connect="1" arrows="1" fold="1" page="1" pageScale="1" pageWidth="827" pageHeight="1169" math="0" shadow="0">
      <root>
        <mxCell id="WIyWlLk6GJQsqaUBKTNV-0" />
        <mxCell id="WIyWlLk6GJQsqaUBKTNV-1" parent="WIyWlLk6GJQsqaUBKTNV-0" />
        <mxCell id="crw4aDlC8OJTq0HlNsgd-17" value="" style="group" parent="WIyWlLk6GJQsqaUBKTNV-1" vertex="1" connectable="0">
          <mxGeometry x="160" y="100" width="590" height="590" as="geometry" />
        </mxCell>
        <mxCell id="crw4aDlC8OJTq0HlNsgd-4" value="Start" style="strokeWidth=2;html=1;shape=mxgraph.flowchart.terminator;whiteSpace=wrap;" parent="crw4aDlC8OJTq0HlNsgd-17" vertex="1">
          <mxGeometry x="170" width="120" height="50" as="geometry" />
        </mxCell>
        <mxCell id="crw4aDlC8OJTq0HlNsgd-6" value="Print(Output) Bilangan input(n) &lt;br&gt;adalah bilangan Prima" style="strokeWidth=2;html=1;shape=parallelogram;whiteSpace=wrap;" parent="crw4aDlC8OJTq0HlNsgd-17" vertex="1">
          <mxGeometry x="-60" y="443" width="219" height="90" as="geometry" />
        </mxCell>
        <mxCell id="crw4aDlC8OJTq0HlNsgd-8" value="Print(Output) Bilangan input(n) &lt;br&gt;adalah Bukan bilangan Prima" style="strokeWidth=2;html=1;shape=parallelogram;whiteSpace=wrap;" parent="crw4aDlC8OJTq0HlNsgd-17" vertex="1">
          <mxGeometry x="318" y="443" width="222" height="90" as="geometry" />
        </mxCell>
        <mxCell id="crw4aDlC8OJTq0HlNsgd-16" value="" style="group" parent="crw4aDlC8OJTq0HlNsgd-17" vertex="1" connectable="0">
          <mxGeometry x="137.5" y="110" width="191.75" height="480" as="geometry" />
        </mxCell>
        <mxCell id="crw4aDlC8OJTq0HlNsgd-1" value="Input Bilangan Integer(n)" style="shape=parallelogram;whiteSpace=wrap;html=1;backgroundOutline=1;" parent="crw4aDlC8OJTq0HlNsgd-16" vertex="1">
          <mxGeometry x="-7" width="198.75" height="60" as="geometry" />
        </mxCell>
        <mxCell id="crw4aDlC8OJTq0HlNsgd-2" value="Bilangan Input(n)%2 ==0" style="rhombus;whiteSpace=wrap;html=1;" parent="crw4aDlC8OJTq0HlNsgd-16" vertex="1">
          <mxGeometry y="100" width="185" height="100" as="geometry" />
        </mxCell>
        <mxCell id="crw4aDlC8OJTq0HlNsgd-11" value="" style="edgeStyle=orthogonalEdgeStyle;rounded=0;orthogonalLoop=1;jettySize=auto;html=1;" parent="crw4aDlC8OJTq0HlNsgd-16" source="crw4aDlC8OJTq0HlNsgd-1" target="crw4aDlC8OJTq0HlNsgd-2" edge="1">
          <mxGeometry relative="1" as="geometry" />
        </mxCell>
        <mxCell id="crw4aDlC8OJTq0HlNsgd-5" value="End" style="strokeWidth=2;html=1;shape=mxgraph.flowchart.terminator;whiteSpace=wrap;" parent="crw4aDlC8OJTq0HlNsgd-16" vertex="1">
          <mxGeometry x="32.5" y="513" width="120" height="50" as="geometry" />
        </mxCell>
        <mxCell id="crw4aDlC8OJTq0HlNsgd-15" style="edgeStyle=orthogonalEdgeStyle;rounded=0;orthogonalLoop=1;jettySize=auto;html=1;" parent="crw4aDlC8OJTq0HlNsgd-16" source="crw4aDlC8OJTq0HlNsgd-8" edge="1">
          <mxGeometry relative="1" as="geometry">
            <mxPoint x="92.5" y="503" as="targetPoint" />
          </mxGeometry>
        </mxCell>
        <mxCell id="crw4aDlC8OJTq0HlNsgd-19" value="Ya" style="text;html=1;strokeColor=none;fillColor=none;align=center;verticalAlign=middle;whiteSpace=wrap;rounded=0;" parent="crw4aDlC8OJTq0HlNsgd-16" vertex="1">
          <mxGeometry x="-60" y="120" width="60" height="30" as="geometry" />
        </mxCell>
        <mxCell id="crw4aDlC8OJTq0HlNsgd-21" value="&lt;h1&gt;&lt;span style=&quot;font-size: 18px;&quot;&gt;Decision&lt;/span&gt;&lt;/h1&gt;&lt;p&gt;&lt;/p&gt;Pengambilan keputusan apaakah&amp;nbsp;&lt;span style=&quot;background-color: initial;&quot;&gt;input Bilangan n jika di lakukan proses mod dengan angka 2 apakah = 0&lt;/span&gt;" style="text;html=1;strokeColor=none;fillColor=none;spacing=5;spacingTop=-20;whiteSpace=wrap;overflow=hidden;rounded=0;" parent="crw4aDlC8OJTq0HlNsgd-16" vertex="1">
          <mxGeometry x="1.75" y="180" width="190" height="140" as="geometry" />
        </mxCell>
        <mxCell id="crw4aDlC8OJTq0HlNsgd-12" style="edgeStyle=orthogonalEdgeStyle;rounded=0;orthogonalLoop=1;jettySize=auto;html=1;entryX=0.5;entryY=0;entryDx=0;entryDy=0;entryPerimeter=0;exitX=0;exitY=0.5;exitDx=0;exitDy=0;" parent="crw4aDlC8OJTq0HlNsgd-17" source="crw4aDlC8OJTq0HlNsgd-2" target="crw4aDlC8OJTq0HlNsgd-6" edge="1">
          <mxGeometry relative="1" as="geometry" />
        </mxCell>
        <mxCell id="crw4aDlC8OJTq0HlNsgd-13" style="edgeStyle=orthogonalEdgeStyle;rounded=0;orthogonalLoop=1;jettySize=auto;html=1;entryX=0.5;entryY=0;entryDx=0;entryDy=0;entryPerimeter=0;exitX=1;exitY=0.5;exitDx=0;exitDy=0;" parent="crw4aDlC8OJTq0HlNsgd-17" source="crw4aDlC8OJTq0HlNsgd-2" target="crw4aDlC8OJTq0HlNsgd-8" edge="1">
          <mxGeometry relative="1" as="geometry" />
        </mxCell>
        <mxCell id="crw4aDlC8OJTq0HlNsgd-10" value="" style="edgeStyle=orthogonalEdgeStyle;rounded=0;orthogonalLoop=1;jettySize=auto;html=1;" parent="crw4aDlC8OJTq0HlNsgd-17" source="crw4aDlC8OJTq0HlNsgd-4" target="crw4aDlC8OJTq0HlNsgd-1" edge="1">
          <mxGeometry relative="1" as="geometry" />
        </mxCell>
        <mxCell id="crw4aDlC8OJTq0HlNsgd-14" style="edgeStyle=orthogonalEdgeStyle;rounded=0;orthogonalLoop=1;jettySize=auto;html=1;entryX=0.492;entryY=-0.12;entryDx=0;entryDy=0;entryPerimeter=0;" parent="crw4aDlC8OJTq0HlNsgd-17" source="crw4aDlC8OJTq0HlNsgd-6" target="crw4aDlC8OJTq0HlNsgd-5" edge="1">
          <mxGeometry relative="1" as="geometry" />
        </mxCell>
        <mxCell id="crw4aDlC8OJTq0HlNsgd-18" value="Tidak" style="text;html=1;strokeColor=none;fillColor=none;align=center;verticalAlign=middle;whiteSpace=wrap;rounded=0;" parent="crw4aDlC8OJTq0HlNsgd-17" vertex="1">
          <mxGeometry x="310" y="230" width="60" height="30" as="geometry" />
        </mxCell>
        <mxCell id="crw4aDlC8OJTq0HlNsgd-20" value="&lt;h1&gt;&lt;font style=&quot;font-size: 18px;&quot;&gt;Input&lt;/font&gt;&lt;/h1&gt;&lt;p&gt;&amp;nbsp;input Bilangan Integer dengan nama variabel n&lt;/p&gt;" style="text;html=1;strokeColor=none;fillColor=none;spacing=5;spacingTop=-20;whiteSpace=wrap;overflow=hidden;rounded=0;" parent="crw4aDlC8OJTq0HlNsgd-17" vertex="1">
          <mxGeometry x="340" y="90" width="170" height="80" as="geometry" />
        </mxCell>
        <mxCell id="crw4aDlC8OJTq0HlNsgd-23" value="&lt;h1&gt;&lt;font style=&quot;font-size: 18px;&quot;&gt;Output&lt;/font&gt;&lt;/h1&gt;&lt;p&gt;menampilkan display Output dari hasil pengambilan keputusan bernilai salah&lt;/p&gt;" style="text;html=1;strokeColor=none;fillColor=none;spacing=5;spacingTop=-20;whiteSpace=wrap;overflow=hidden;rounded=0;" parent="crw4aDlC8OJTq0HlNsgd-17" vertex="1">
          <mxGeometry x="360" y="528" width="170" height="105" as="geometry" />
        </mxCell>
        <mxCell id="crw4aDlC8OJTq0HlNsgd-22" value="&lt;h1&gt;&lt;font style=&quot;font-size: 18px;&quot;&gt;Output&lt;/font&gt;&lt;/h1&gt;&lt;p&gt;menampilkan display Output dari hasil pengambilan keputusan bernilai benar&lt;/p&gt;" style="text;html=1;strokeColor=none;fillColor=none;spacing=5;spacingTop=-20;whiteSpace=wrap;overflow=hidden;rounded=0;" parent="WIyWlLk6GJQsqaUBKTNV-1" vertex="1">
          <mxGeometry x="100" y="633" width="170" height="105" as="geometry" />
        </mxCell>
      </root>
    </mxGraphModel>
  </diagram>
</mxfile>
